<?xml version="1.0" encoding="utf-8"?>
<!-- Generator: Adobe Illustrator 23.1.0, SVG Export Plug-In . SVG Version: 6.00 Build 0)  -->
<svg version="1.1" id="Layer_1" xmlns="http://www.w3.org/2000/svg" xmlns:xlink="http://www.w3.org/1999/xlink" x="0px" y="0px"
	 viewBox="0 0 343.4 170" style="enable-background:new 0 0 343.4 170;" xml:space="preserve">
<style type="text/css">
	.st0{fill:#FFFFFF;}
	.st1{fill:#EA580C;}
</style>
<title>Asset 1logo</title>
<g>
	<g id="Layer_1-2">
		<path class="st0" d="M277,119l0.6-10.5h17.3l-2.2,42.4h-22.3c-8.8,0-13-4.9-12.5-14.6l3-57.4c0.5-9.9,5.2-14.8,14-14.8h7.8
			c9.7,0,14.3,5,13.8,15.1l-0.5,9.4h-11.4l0.4-7.7c0.2-4.2-1.3-6.3-4.5-6.3h-2.9c-3.3,0-5.1,2.1-5.3,6.3l-2.8,53.3
			c-0.2,4.2,1.3,6.3,4.6,6.3h7.8L283,119H277z"/>
		<path class="st0" d="M315.1,150.9c-9.2,0-13.6-4.9-13.1-14.8l3-57.3c0.5-9.9,5.3-14.9,14.4-14.9h10.9c9.1,0,13.5,5,13,14.9
			l-3,57.3c-0.5,9.8-5.3,14.8-14.5,14.8L315.1,150.9z M318.3,140.3h5.8c3.1,0,4.7-1.7,4.8-5.1l3-55.7c0.2-3.4-1.5-5.1-4.9-5.1h-5.4
			c-3.3,0-5.1,1.7-5.2,5.1l-3,55.7C313.3,138.7,314.9,140.3,318.3,140.3L318.3,140.3z"/>
		<path class="st1" d="M19,119l0.6-10.5H37l-2.2,42.4H12.5c-8.8,0-13-4.9-12.5-14.6l3-57.4C3.5,68.9,8.2,64,17,64h7.7
			c9.7,0,14.3,5,13.8,15.1l-0.5,9.4H26.7l0.3-7.8c0.2-4.2-1.3-6.3-4.5-6.3h-2.9c-3.3,0-5.1,2.1-5.3,6.3l-2.8,53.3
			c-0.2,4.2,1.3,6.3,4.6,6.3h7.7L25,119H19z"/>
		<path class="st1" d="M62.9,150.9H51.5l1.7-32L41.9,64h11.3l6.7,37.8h0.4L69.9,64h11.3l-16.6,55L62.9,150.9z"/>
		<path class="st1" d="M108,115l13.2-51h12.6l-4.5,86.9h-11.4l4.1-56.9l-10.7,41.2h-8.7L96.2,94l-1.7,56.9H83.1L87.6,64h12.6
			L108,115z"/>
		<path class="st1" d="M244.5,88.7l10.3-1.4c-3.9,9.9-9.3,18.1-17.8,24.2c-13.9,10-25.6,21.9-33.2,37.4c-0.6,1-0.8,2.2-0.8,3.4
			c3.7-6,7.4-12,11.1-18.1c0.8,1.6,1.7,3.1,2.7,4.6c5.2,6.7,6.5,14.2,4.5,22.4c-0.3,0.9-0.9,1.6-1.7,1.9c-18.9,7.2-38.2,9.6-58,3.6
			c-0.3-0.1-0.5-0.3-0.7-0.5l70-90.1h-20.2c1.1-1.4,2-2.6,2.9-3.7c5.5-6.5,11.2-12.8,16.3-19.5c2.8-3.7,6-4.2,9.7-3
			c2.8,0.9,4.6,0.2,6.9-1.4c2.9-1.9,6.1-3.4,9.4-4.3c2.6-0.8,5.3-1,7.7,2c1.3,1.6,4.5,2.5,6.8,2.5c3.2-0.1,6.4-1.4,9.6-2.2l-0.3-1.1
			c-1.4,0.5-2.7,1-4.1,1.4c-7.1,2.3-10.9,0.9-14.5-5.5s-7.3-12.9-11-19.4c-2.6-4.6-3.7-4.6-8.6-3c-2.8,0.9-6,0.6-9,0.5
			c-1.4,0-2.8-0.8-4.4-0.6l3.6,1.8c-1,0.9-2.1,1.7-3.3,2.5c-0.9,0.6-1.9,0.9-2.9,1.1c-2.1,0.3-11-7.4-11.1-9.5
			c-0.1-2.4-0.1-4.9,0.1-7.3c0.2-2.7,2.2-3.7,4.6-4.4c24.1-7,44.6,0.3,62.7,16.2c4.3,3.9,8.2,8.2,11.8,12.8c3.6,4.4,3.8,9,0.9,14.5
			c-5.1,9.5-10.5,18.6-18.4,26C267.4,80.4,256.4,86.2,244.5,88.7z"/>
		<path class="st0" d="M131.7,62.9c0.6,4.8,1,9.2,1.7,13.5c0.3,1.9,1.4,3.7,1.8,5.6c0.9,3.9,2.1,7.9-1.1,11.8
			c5.7-8.1,13.6-8.3,21.6-7.6c0.9,3.4,1.6,6.5,2.5,9.5c0.2,0.6,1.4,0.9,2.3,1.2c-2.2-3.3-3.3-6.7-2.2-10.5c1.2-4.4,4.3-7.9,8.5-9.7
			c4.4-1.7,8.9-3.1,13.6-4.2c3.7-1,5-3.8,5.4-6.9c0.2-1.3-1.7-3.1-3.1-4.3c-0.6-0.5-2.2-0.3-3.2,0c-2.8,0.8-5.5,1.8-8.2,2.8
			c-2.7,1-4.4-0.1-5-2.7c-0.3-1.8-0.4-3.6-0.2-5.5c0.2-2.2,1.3-4.5-1.3-6.3c-0.3-0.2-0.1-2.2,0.5-2.8c2.6-2.7,4.2-5.4,2-9.2
			c-0.4-1.1-0.4-2.3,0.2-3.3c4.6-9,15.9-18,29.2-14.4c9,2.5,13.4,10.2,11,19.2c-0.5,2.6-0.3,5.2,0.5,7.7c0.8,1.9,0.5,4-0.8,5.6
			C199.2,64.3,191,76.1,182.7,88c-0.6,0.9-1.2,1.9-2.2,3.5l23.6-4.1l-40.6,69.2l-0.5-0.2c0.5-1.9,1-3.7,1.4-5.6
			c0.8-3.6,2-7.2,2.3-10.8c0.2-2.9-0.6-5.9-1-8.8c-0.5-4.1-1-8.3-1.7-12.3c-0.4-1.8-1.1-3.6-2.1-5.1c-1.8-3.1-3.8-6.1-6.2-9.9
			c0.9,3,1.6,5.5,2.4,8.4c-6.5,2.3-13.3,4.7-20.8,2.1c-1.2-0.3-2.5-0.3-3.7,0c-2.1,0.4-4.2,1.2-6.4,1.7c-5.7,1.3-6.3,1.1-9-4.1
			c-4.6-8.8-4.7-18.1-1.7-27.4s5.7-18.4,5.1-28.3c-0.1-1,0.9-2.2,1.8-3c4.2-4.2,8.5-8.5,12.9-12.5c1-0.9,2.4-1.2,3.7-1
			c6.4,2.6,9.5,9.8,6.9,16.2c-0.2,0.6-0.5,1.1-0.8,1.7C143.3,62.5,138.1,64.6,131.7,62.9z"/>
	</g>
</g>
</svg>
